<svg width="32" height="32" viewBox="0 0 32 32" fill="none" xmlns="http://www.w3.org/2000/svg">
<path d="M16 30.3334C8.09335 30.3334 1.66669 23.9067 1.66669 16.0001C1.66669 8.09342 8.09335 1.66675 16 1.66675C23.9067 1.66675 30.3334 8.09342 30.3334 16.0001C30.3334 23.9067 23.9067 30.3334 16 30.3334ZM16 3.66675C9.20002 3.66675 3.66669 9.20008 3.66669 16.0001C3.66669 22.8001 9.20002 28.3334 16 28.3334C22.8 28.3334 28.3334 22.8001 28.3334 16.0001C28.3334 9.20008 22.8 3.66675 16 3.66675Z" fill="#A3B3C2"/>
<path d="M14.32 21.7066C14.0667 21.7066 13.8134 21.6133 13.6134 21.4133C13.2267 21.0266 13.2267 20.3866 13.6134 20L17.6134 16L13.6134 12C13.2267 11.6133 13.2267 10.9733 13.6134 10.5866C14 10.2 14.64 10.2 15.0267 10.5866L19.7334 15.2933C20.12 15.68 20.12 16.32 19.7334 16.7066L15.0267 21.4133C14.8267 21.6133 14.5734 21.7066 14.32 21.7066Z" fill="#A3B3C2"/>
</svg>
