<svg width="32" height="32" viewBox="0 0 32 32" fill="none" xmlns="http://www.w3.org/2000/svg">
<path d="M16 30.3334C8.09335 30.3334 1.66669 23.9067 1.66669 16.0001C1.66669 8.09342 8.09335 1.66675 16 1.66675C23.9067 1.66675 30.3334 8.09342 30.3334 16.0001C30.3334 23.9067 23.9067 30.3334 16 30.3334ZM16 3.66675C9.20002 3.66675 3.66669 9.20008 3.66669 16.0001C3.66669 22.8001 9.20002 28.3334 16 28.3334C22.8 28.3334 28.3334 22.8001 28.3334 16.0001C28.3334 9.20008 22.8 3.66675 16 3.66675Z" fill="#A3B3C2"/>
<path d="M17.68 21.7066C17.4267 21.7066 17.1734 21.6133 16.9734 21.4133L12.2667 16.7066C11.88 16.32 11.88 15.68 12.2667 15.2933L16.9734 10.5866C17.36 10.2 18 10.2 18.3867 10.5866C18.7734 10.9733 18.7734 11.6133 18.3867 12L14.3867 16L18.3867 20C18.7734 20.3866 18.7734 21.0266 18.3867 21.4133C18.2 21.6133 17.9467 21.7066 17.68 21.7066Z" fill="#A3B3C2"/>
</svg>
