<svg width="40" height="40" viewBox="0 0 40 40" fill="none" xmlns="http://www.w3.org/2000/svg">
<g clip-path="url(#clip0_370_576)">
<path d="M20 0C9 0 0 9 0 20C0 31 9 40 20 40C31 40 40 31 40 20C40 9 31 0 20 0ZM14.5 30H10.375V16.625H14.5V30ZM12.375 14.875C11.125 14.875 10 13.75 10 12.375C10 11.125 11.125 10 12.375 10C13.75 10 14.75 11.125 14.75 12.375C14.75 13.75 13.75 14.875 12.375 14.875ZM30 30H25.875V23.5C25.875 22 25.875 20 23.75 20C21.625 20 21.25 21.625 21.25 23.375V30H17.125V16.625H21.125V18.5C21.625 17.5 23 16.375 25 16.375C29.25 16.375 30 19.125 30 22.75V30Z" fill="#1DA1F2"/>
</g>
<defs>
<clipPath id="clip0_370_576">
<rect width="40" height="40" fill="white"/>
</clipPath>
</defs>
</svg>
