<svg width="40" height="40" viewBox="0 0 40 40" fill="none" xmlns="http://www.w3.org/2000/svg">
<g clip-path="url(#clip0_370_572)">
<path d="M20 0C9 0 0 9 0 20C0 31 9 40 20 40C31 40 40 31 40 20C40 9 31 0 20 0ZM28 15.875C28 16 28 16.25 28 16.375C28 21.75 23.875 28 16.375 28C14 28 11.875 27.375 10.125 26.125C10.5 26.125 10.75 26.125 11.125 26.125C13 26.125 14.875 25.5 16.25 24.375C14.5 24.375 13 23.125 12.375 21.5C12.625 21.5 12.875 21.625 13.125 21.625C13.5 21.625 13.875 21.625 14.25 21.5C12.375 21.125 11 19.5 11 17.5C11.5 17.75 12.125 18 12.875 18C11.75 17.25 11 16 11 14.625C11 13.875 11.25 13.125 11.5 12.5C13.5 15 16.5 16.625 20 16.75C19.875 16.5 19.875 16.125 19.875 15.875C19.875 13.625 21.75 11.75 24 11.75C25.125 11.75 26.25 12.25 27 13C27.875 12.875 28.875 12.5 29.625 12C29.375 13 28.625 13.75 27.875 14.25C28.75 14.125 29.5 13.875 30.25 13.625C29.5 14.625 28.75 15.375 28 15.875Z" fill="#1DA1F2"/>
</g>
<defs>
<clipPath id="clip0_370_572">
<rect width="40" height="40" fill="white"/>
</clipPath>
</defs>
</svg>
